<?xml version="1.0" encoding="utf-8"?>
<!-- Generator: Adobe Illustrator 19.0.1, SVG Export Plug-In . SVG Version: 6.00 Build 0)  -->
<svg version="1.1" id="Слой_1" xmlns="http://www.w3.org/2000/svg" xmlns:xlink="http://www.w3.org/1999/xlink" x="0px" y="0px"
	 viewBox="0 0 1370 240" enable-background="new 0 0 1370 240" xml:space="preserve">
<g id="XMLID_1459_" opacity="0.56">
	<path id="XMLID_1462_" opacity="0.08" fill="#FFFFFF" d="M-3.8,10.1c0,0,82.4,129.7,304,144c112,7.2,222.9-15.6,290.5-59.1
		S771-2,946-2c182.5,0,194.7,91,291.1,94c131.3,4.1,135.9-22.6,135.9-22.6V130c0,0-22.7-28.4-102.4-10.3
		c-125.4,28.5-103.9,74.5-200.8,58C871,143.8,924.6,145.8,620.2,199c-206.3,36.1-396.7-15.6-475-17.1S-4,242.3-4,242.3L-3.8,10.1z"
		/>
	<path id="XMLID_1461_" opacity="0.08" fill="#FFFFFF" d="M-5,233.6V82.7c0,0,45.7,39.7,106.8,31.8S233.1,34.7,438,34.6
		c139,0,197,41.9,298.8,79.4s134.2,45.5,245.6,45.5S1138.5,100.2,1196,96s179,56.8,179,56.8V223c0,0-99.1-72.1-277-33.1
		s-338.5,29.7-457.1-10.8s-183.7-8.3-325.9-11.3S155.1,116,101,134.1C57.7,148.6-5,233.6-5,233.6z"/>
	<path id="XMLID_1460_" opacity="0.08" fill="#FFFFFF" d="M1376,183.4v-90c0,0-45.7,7.9-106.8,0S1137.9,13.7,933,13.6
		c-139,0-197,41.9-298.8,79.4s-134.2,61-245.6,61S233.8,93,176.3,88.8C118.8,84.6-4,131.8-4,131.8v49.7c0,0,98-89.5,275.9-50.5
		s339.5,67.6,458.1,27.1s174.7,6.1,316.9,3.1S1204.3,81,1280,116C1321.4,135.2,1376,183.4,1376,183.4z"/>
</g>
</svg>
